<svg xmlns="http://www.w3.org/2000/svg" version="1.1" width="16" height="16" viewBox="2 2 12 12" xml:space="preserve" xmlns:xlink="http://www.w3.org/1999/xlink" style="fill-rule: evenodd; clip-rule: evenodd; stroke-linejoin: round; stroke-miterlimit: 1.41421;"><path d="M8 2C4.7 2 2 4.7 2 8s2.7 6 6 6 6-2.7 6-6-2.7-6-6-6zm-.5 5.5h.9v.9h-.9v-.9zm-3.8.2c-.1 0-.2-.1-.2-.2 0-.4.1-1.2.6-2S5.3 4.2 5.6 4c.2 0 .3 0 .3.1l1.3 2.3c0 .1 0 .2-.1.2-.1.2-.2.3-.3.5-.1.2-.2.4-.2.5 0 .1-.1.2-.2.2l-2.7-.1zM9.9 12c-.3.2-1.1.5-2 .5-.9 0-1.7-.3-2-.5-.1 0-.1-.2-.1-.3l1.3-2.3c0-.1.1-.1.2-.1.2.1.3.1.5.1s.4 0 .5-.1c.1 0 .2 0 .2.1l1.3 2.3c.2.2.2.3.1.3zm2.5-4.1L9.7 8c-.1 0-.2-.1-.2-.2 0-.2-.1-.4-.2-.5 0-.1-.2-.3-.3-.4-.1 0-.1-.1-.1-.2l1.3-2.3c.1-.1.2-.1.3-.1.3.2 1 .7 1.5 1.5s.6 1.6.6 2c0 0-.1.1-.2.1z" style="fill: currentcolor;"/></svg>
