<svg xmlns="http://www.w3.org/2000/svg" version="1.1" width="16" height="16" viewBox="2 2 12 12" xml:space="preserve" xmlns:xlink="http://www.w3.org/1999/xlink" style="fill-rule: evenodd; clip-rule: evenodd; stroke-linejoin: round; stroke-miterlimit: 1.41421;"><path d="M8 2c3.311 0 6 2.689 6 6s-2.689 6-6 6-6-2.689-6-6 2.689-6 6-6zm1 10V7.414l1.893 1.893c.13.124.282.216.457.261a1.006 1.006 0 0 0 1.176-.591 1.01 1.01 0 0 0 .01-.729 1.052 1.052 0 0 0-.229-.355c-1.212-1.212-2.394-2.456-3.638-3.636a1.073 1.073 0 0 0-.169-.123 1.05 1.05 0 0 0-.448-.133h-.104a1.053 1.053 0 0 0-.493.16 1.212 1.212 0 0 0-.162.132C6.08 5.505 4.836 6.687 3.656 7.932a.994.994 0 0 0-.051 1.275c.208.271.548.42.888.389.198-.019.378-.098.535-.218.041-.035.04-.034.079-.071L7 7.414V12h2z" style="fill: rgb(212, 51, 63); fill-rule: nonzero;"/></svg>
