<svg xmlns="http://www.w3.org/2000/svg" version="1.1" width="16" height="16" viewBox="2 2 12 12" xml:space="preserve" xmlns:xlink="http://www.w3.org/1999/xlink" style="fill-rule: evenodd; clip-rule: evenodd; stroke-linejoin: round; stroke-miterlimit: 1.41421;"><path d="M8 2c3.311 0 6 2.689 6 6s-2.689 6-6 6-6-2.689-6-6 2.689-6 6-6zm.08 2.903c.071.008.14.019.208.039.138.042.26.114.37.205 1.244 1.146 2.426 2.357 3.639 3.536.1.103.181.218.234.352a1.01 1.01 0 0 1 .001.728 1.002 1.002 0 0 1-1.169.609 1.042 1.042 0 0 1-.46-.255L8 7.295l-2.903 2.822c-.039.036-.039.036-.08.07a1.002 1.002 0 0 1-1.604-.947c.032-.196.122-.37.253-.519C4.847 7.51 6.09 6.362 7.303 5.183c.052-.048.106-.093.167-.131a1.041 1.041 0 0 1 .61-.149z" style="fill: rgb(212, 51, 63);"/></svg>
